<?xml version="1.0" encoding="utf-8"?>
<svg width="32px" height="32px" viewBox="0 0 32 32" fill="none" xmlns="http://www.w3.org/2000/svg">

  <path fill-rule="evenodd" clip-rule="evenodd" d="M16 32C24.836 32 32 24.836 32 16C32 7.164 24.836 0 16 0C7.164 0 0 7.164 0 16C0 24.836 7.164 32 16 32Z"/>
  
  <path d="M17.6 10.8C17.6 10.16 17.04 9.6 16.4 9.6C15.76 9.6 15.2 10.16 15.2 10.8V14.4H11.6C10.96 14.4 10.4 14.96 10.4 15.6C10.4 16.24 10.96 16.8 11.6 16.8H15.2V20.4C15.2 21.04 15.76 21.6 16.4 21.6C17.04 21.6 17.6 21.04 17.6 20.4V16.8H21.2C21.84 16.8 22.4 16.24 22.4 15.6C22.4 14.96 21.84 14.4 21.2 14.4H17.6V10.8Z" fill="white"/>
</svg>